<svg width="177" height="31" viewBox="0 0 177 31" fill="none" xmlns="http://www.w3.org/2000/svg">
<path d="M15.3892 0C23.5262 0 30.3358 6.35146 30.3358 15.2191C30.3358 24.7707 23.5754 31.0244 15.2662 31.0244C6.3425 31 0 24.16 0 15.7076C0 7.89047 5.70333 0 15.3892 0ZM14.4796 1.14815C9.98083 1.14815 6.56375 5.6186 6.56375 14.6572C6.56375 23.2073 10.0546 29.8763 16.0283 29.8763C20.6254 29.8763 23.7475 25.2593 23.7475 16.3917C23.7721 6.84003 20.1338 1.14815 14.4796 1.14815Z" fill="white"/>
<path d="M41.9146 30.316H31.2454V29.5831C33.5808 29.1678 33.7283 28.9968 33.7283 25.6501V15.9275C33.7283 13.5579 33.3596 13.2892 31.6633 12.7273V12.1411C34.0479 11.8723 36.7767 11.3105 39.1121 10.3578C39.0629 11.0906 38.9646 13.5091 38.9646 15.1458C40.12 13.0449 41.9883 10.431 44.25 10.431C45.7742 10.431 46.8804 11.3349 46.8804 12.7518C46.8804 13.9732 45.6758 15.8054 44.5942 16.1718C44.0042 16.3916 43.7583 16.3184 43.4387 15.9764C42.6029 15.1946 42.1604 14.6083 41.3246 14.6083C40.6363 14.6083 39.7513 14.9748 38.9892 16.5626V25.6013C38.9892 28.948 39.3579 29.0213 41.9392 29.5343V30.316H41.9146Z" fill="white"/>
<path d="M57.0334 30.3649C56.3942 30.6824 55.6075 30.8779 55.288 30.8779C52.1659 30.8779 50.273 29.3144 50.273 25.4791V12.4098H47.5688L47.4705 12.1411L48.2571 10.9929H50.273V7.25531C51.8463 6.42474 53.7638 5.00787 55.1405 3.88416L55.6567 3.93301C55.6075 5.30102 55.4846 8.45232 55.5092 11.0173H59.59C59.7621 11.286 59.6392 12.1166 59.418 12.4342H55.5092V24.5264C55.5092 27.8976 56.7875 28.5816 57.8938 28.5816C58.3609 28.5816 59.123 28.435 59.6392 28.2151L59.8605 28.8991L57.0334 30.3649Z" fill="white"/>
<path d="M60.3275 30.316V29.5831C62.7613 29.1678 62.8596 28.948 62.8596 25.4302V16.2206C62.8596 13.5823 62.7121 13.3869 60.8438 12.7517V12.1166C63.5479 11.799 66.0309 11.2372 68.1942 10.4799C68.145 11.4326 68.0959 14.0465 68.0959 15.8298V25.4547C68.0959 28.8258 68.3171 29.119 70.7509 29.6075V30.3404H60.3275V30.316ZM65.0967 6.52243C63.5725 6.52243 62.3434 5.301 62.3434 3.63985C62.3434 1.95427 63.5725 0.757263 65.1459 0.757263C66.8421 0.757263 68.0467 1.95427 68.0467 3.63985C68.0467 5.301 66.8421 6.52243 65.0967 6.52243Z" fill="white"/>
<path d="M89.0654 24.2577C88.4754 26.0898 87.4921 29.3388 87.1725 30.3404H71.8571L71.685 29.803C75.2742 23.7202 78.4946 18.1505 81.7887 12.2632C80.9529 12.2632 79.1583 12.2632 78.47 12.2632C75.4708 12.2632 74.8317 12.5808 72.6437 16.8802L72.0046 16.6848C72.3733 14.9015 72.8896 11.8968 73.16 10.0646H73.7008C74.1679 10.7486 74.7087 11.0173 76.4542 11.0173H87.9346L88.1066 11.3838C84.7141 17.2711 81.8625 22.3034 78.0521 29.1434H81.3708C84.7141 29.1434 86.0171 27.9953 88.4016 23.989L89.0654 24.2577Z" fill="white"/>
<path d="M120.606 12.1411C118.074 12.5563 117.164 13.0205 115.37 15.4389C114.214 17.0757 112.936 18.9567 111.608 20.9598C114.632 24.0134 117.533 27.1647 119.696 30.5603L119.524 30.8779C114.976 30.7313 112.174 29.7297 111.608 29.0946C111.018 28.5083 109.814 27.0914 108.167 25.4058C105.266 29.3389 102.291 30.8779 99.3904 30.8779C93.5642 30.8779 90.2454 26.3586 90.2454 22.621C90.2454 19.1521 92.2613 17.3199 97.0058 14.4862C95.0392 12.6541 93.6133 10.4311 93.6133 7.76833C93.6133 3.39559 97.2517 0.195435 101.48 0.195435C105.88 0.195435 108.978 2.9803 108.978 6.54689C108.978 8.18361 108.339 9.38062 107.085 10.3333C106.2 11.0173 105.192 11.6036 103.078 12.7029C104.553 14.0221 107.257 16.7337 110.846 20.1048C111.584 18.8834 112.543 17.4909 113.378 15.6832C114.386 13.4114 113.968 12.8006 110.748 12.1655V11.4815H120.63V12.1411H120.606ZM101.996 27.3113C103.963 27.3113 106.126 25.9921 107.331 24.6241C103.57 20.6422 101.529 18.6879 97.6696 15.2191C96.4404 16.5871 95.4571 18.3215 95.4571 20.3002C95.4817 25.357 98.5546 27.3113 101.996 27.3113ZM101.136 1.19701C99.3904 1.19701 98.1367 2.76045 98.1367 5.49646C98.1367 7.7439 99.2429 9.52719 102.316 12.0189C103.324 11.0662 104.479 9.55162 104.479 6.25375C104.479 3.61545 103.373 1.19701 101.136 1.19701Z" fill="white"/>
<path d="M148.95 23.0118C148.483 24.9417 147.377 28.5816 146.738 29.9496C145.582 30.1694 141.993 31 138.92 31C127.022 31 121.958 23.647 121.958 15.6099C121.958 6.57132 128.669 0 139.461 0C143.149 0 146.492 0.830575 147.598 0.903861C147.697 3.22459 148.016 6.00946 148.237 7.89046L147.402 8.08589C146.492 4.83688 145.337 3.10244 142.755 1.92987C141.526 1.34358 140.174 1.09929 138.306 1.09929C131.422 1.09929 128.472 7.23089 128.472 14.7549C128.472 23.5737 132.602 29.8763 139.412 29.8763C143.69 29.8763 146.172 27.3113 148.188 22.7431L148.95 23.0118Z" fill="white"/>
<path d="M160.283 10.4555C166.257 10.4555 170.166 15.1702 170.166 20.3735C170.166 27.3601 165.151 30.8779 160.431 30.8779C152.982 30.8779 150.008 25.4791 150.008 20.8377C149.983 14.4374 155.17 10.4555 160.283 10.4555ZM159.644 11.5059C157.309 11.5059 156.006 14.0709 156.006 19.4452C156.006 25.4791 157.751 29.9007 160.554 29.9007C162.348 29.9007 164.192 28.6793 164.192 21.4972C164.192 15.1702 162.348 11.5059 159.644 11.5059Z" fill="white"/>
<path d="M174.025 30.8779C172.378 30.8779 171.075 29.6076 171.075 27.8243C171.075 26.0898 172.354 24.7707 174.025 24.7707C175.722 24.7707 177 26.0898 177 27.8243C177 29.5831 175.722 30.8779 174.025 30.8779Z" fill="#FDDF6E"/>
</svg>
